<?xml version="1.0" standalone="no"?><!DOCTYPE svg PUBLIC "-//W3C//DTD SVG 1.1//EN" "http://www.w3.org/Graphics/SVG/1.1/DTD/svg11.dtd"><svg t="1685961685114" class="icon" viewBox="0 0 1024 1024" version="1.1" xmlns="http://www.w3.org/2000/svg" p-id="7583" xmlns:xlink="http://www.w3.org/1999/xlink" width="20" height="20"><path d="M436.727802 314.503639h-98.375546V298.107715H347.295488c37.263464-2.981077 67.074236-34.282387 67.074235-73.03639v-7.452693c-1.490539-7.452693-2.981077-16.395924-5.962154-22.358079-2.981077-7.452693-8.943231-13.414847-13.414847-19.377001-13.414847-16.395924-22.358079-28.320233-22.358079-35.772926 0-13.414847 11.924309-23.848617 11.924309-23.848617 2.981077-1.490539-5.962154-7.452693-23.848617 11.924308-1.490539 0-2.981077 1.490539-2.981077 1.490539 0-16.395924-2.981077-32.791849-16.395925-43.225619-25.339156-20.86754-35.772926-14.905386-31.30131-11.924308 0 0 14.905386 11.924309 16.395925 29.810771 1.490539 14.905386-22.358079 41.73508-41.73508 74.526929-10.43377 11.924309-16.395924 28.320233-16.395925 46.206696 0 20.86754 8.943231 40.244541 23.848617 53.659388 7.452693 7.452693 17.886463 13.414847 28.320233 16.395925 4.471616 1.490539 8.943231 1.490539 13.414847 2.981077v16.395924h-93.90393c-34.282387 0-61.112082 26.829694-61.112081 61.112082v535.103347c0 34.282387 26.829694 61.112082 61.112081 61.112082h199.732169c34.282387 0 61.112082-26.829694 61.112082-61.112082V375.615721c-2.981077-32.791849-31.30131-61.112082-64.093159-61.112082zM803.400291 503.802038h-98.375546v-16.395924H713.967977c37.263464-2.981077 67.074236-34.282387 67.074236-73.036391v-7.452692c-1.490539-7.452693-2.981077-16.395924-5.962155-22.358079-2.981077-7.452693-8.943231-13.414847-13.414847-19.377001-10.43377-13.414847-19.377001-25.339156-19.377001-34.282388 0-13.414847 11.924309-23.848617 11.924308-23.848617 2.981077-1.490539-5.962154-7.452693-23.848617 11.924309-1.490539 1.490539-1.490539 1.490539-1.490539 2.981077 0-16.395924-2.981077-32.791849-16.395924-43.225619-25.339156-20.86754-35.772926-14.905386-31.30131-11.924308 0 0 14.905386 11.924309 16.395924 29.810771 1.490539 14.905386-22.358079 43.225619-41.73508 74.526929-10.43377 11.924309-16.395924 28.320233-16.395924 46.206696 0 20.86754 8.943231 40.244541 23.848617 53.659388 7.452693 7.452693 17.886463 13.414847 28.320233 16.395925 4.471616 1.490539 8.943231 1.490539 13.414847 2.981077V506.783115H611.120815c-34.282387 0-61.112082 26.829694-61.112081 61.112082v347.295487c0 34.282387 26.829694 61.112082 61.112081 61.112082h199.732169c34.282387 0 61.112082-26.829694 61.112082-61.112082V564.914119c-7.452693-34.282387-35.772926-61.112082-68.564775-61.112081z" fill="#515151" p-id="7584"></path></svg>